<svg baseProfile="full" width="300" height="300" viewBox="0 0 300 300" version="1.1"
xmlns="http://www.w3.org/2000/svg" xmlns:ev="http://www.w3.org/2001/xml-events"
xmlns:xlink="http://www.w3.org/1999/xlink">

<style>rect.s{mask:url(#mask);}</style>
<defs>
  <pattern id="white" width="4" height="4" patternUnits="userSpaceOnUse" patternTransform="rotate(45)">
    <rect width="2" height="2" transform="translate(0,0)" fill="white"></rect>
  </pattern>
  <mask id="mask">
    <rect x="0" y="0" width="100%" height="100%" fill="url(#white)"></rect>
  </mask>
</defs>

<circle cx="150.0" cy="150.0" fill="#eea719" r="24.9375" stroke="white" stroke-width="1" />
<path d="M 150.0 174.9375 L 150.0 199.875 A 49.875 49.875 0 0 0 150.089420374 199.87491984 L 150.044710187 174.93745992 A 24.9375 24.9375 0 0 1 150.0 174.9375 z" fill="#4c1" stroke="white" stroke-width="1" />
<path d="M 150.044710187 174.93745992 L 150.089420374 199.87491984 A 49.875 49.875 0 0 0 152.502720295 199.81216735 L 151.251360147 174.906083675 A 24.9375 24.9375 0 0 1 150.044710187 174.93745992 z" fill="#4c1" stroke="white" stroke-width="1" />
<path d="M 151.251360147 174.906083675 L 152.502720295 199.81216735 A 49.875 49.875 0 0 0 152.949152601 199.787730657 L 151.4745763 174.893865328 A 24.9375 24.9375 0 0 1 151.251360147 174.906083675 z" fill="#4c1" stroke="white" stroke-width="1" />
<path d="M 151.4745763 174.893865328 L 152.949152601 199.787730657 A 49.875 49.875 0 0 0 154.019554923 199.712762981 L 152.009777461 174.856381491 A 24.9375 24.9375 0 0 1 151.4745763 174.893865328 z" fill="#4c1" stroke="white" stroke-width="1" />
<path d="M 152.009777461 174.856381491 L 154.019554923 199.712762981 A 49.875 49.875 0 1 0 142.716025614 100.659759403 L 146.358012807 125.329879702 A 24.9375 24.9375 0 1 1 152.009777461 174.856381491 z" fill="#e05d44" stroke="white" stroke-width="1" />
<path d="M 154.019554923 199.712762981 L 156.029332384 224.569144472 A 74.8125 74.8125 0 0 0 159.164868698 224.249009003 L 156.109912465 199.499339336 A 49.875 49.875 0 0 1 154.019554923 199.712762981 z" fill="#81cb04" stroke="white" stroke-width="1" />
<path d="M 156.029332384 224.569144472 L 158.039109845 249.425525962 A 99.75 99.75 0 0 0 161.42071376 249.094045216 L 158.56553532 224.320533912 A 74.8125 74.8125 0 0 1 156.029332384 224.569144472 z" fill="#68cb09" stroke="white" stroke-width="1" />
<path d="M 158.56553532 224.320533912 L 161.42071376 249.094045216 A 99.75 99.75 0 0 0 162.219824931 248.998678671 L 159.164868698 224.249009003 A 74.8125 74.8125 0 0 1 158.56553532 224.320533912 z" fill="#a4aa1a" stroke="white" stroke-width="1" />
<path d="M 156.109912465 199.499339336 L 159.164868698 224.249009003 A 74.8125 74.8125 0 0 0 166.168289078 223.044483601 L 160.778859386 198.696322401 A 49.875 49.875 0 0 1 156.109912465 199.499339336 z" fill="#c3b11b" stroke="white" stroke-width="1" />
<path d="M 159.164868698 224.249009003 L 162.219824931 248.998678671 A 99.75 99.75 0 0 0 171.557718771 247.392644801 L 166.168289078 223.044483601 A 74.8125 74.8125 0 0 1 159.164868698 224.249009003 z" fill="#c3b11b" stroke="white" stroke-width="1" />
<path d="M 160.778859386 198.696322401 L 166.168289078 223.044483601 A 74.8125 74.8125 0 0 0 170.330132618 221.997193445 L 163.553421746 197.998128963 A 49.875 49.875 0 0 1 160.778859386 198.696322401 z" fill="#c9b21a" stroke="white" stroke-width="1" />
<path d="M 166.168289078 223.044483601 L 171.557718771 247.392644801 A 99.75 99.75 0 0 0 173.647940333 246.906333219 L 167.73595525 222.679749914 A 74.8125 74.8125 0 0 1 166.168289078 223.044483601 z" fill="#9fbc0b" stroke="white" stroke-width="1" />
<path d="M 167.73595525 222.679749914 L 173.647940333 246.906333219 A 99.75 99.75 0 0 0 177.106843491 245.996257927 L 170.330132618 221.997193445 A 74.8125 74.8125 0 0 1 167.73595525 222.679749914 z" fill="#efa41b" stroke="white" stroke-width="1" />
<path d="M 163.553421746 197.998128963 L 170.330132618 221.997193445 A 74.8125 74.8125 0 0 0 174.615158179 220.647039174 L 166.410105453 197.098026116 A 49.875 49.875 0 0 1 163.553421746 197.998128963 z" fill="#e05d44" stroke="white" stroke-width="1" />
<path d="M 170.330132618 221.997193445 L 177.106843491 245.996257927 A 99.75 99.75 0 0 0 179.84908617 245.179275868 L 172.386814628 221.384456901 A 74.8125 74.8125 0 0 1 170.330132618 221.997193445 z" fill="#e05d44" stroke="white" stroke-width="1" />
<path d="M 172.386814628 221.384456901 L 179.84908617 245.179275868 A 99.75 99.75 0 0 0 182.820210906 244.196052232 L 174.615158179 220.647039174 A 74.8125 74.8125 0 0 1 172.386814628 221.384456901 z" fill="#6ccb08" stroke="white" stroke-width="1" />
<path d="M 166.410105453 197.098026116 L 174.615158179 220.647039174 A 74.8125 74.8125 0 0 0 183.80422044 216.739679627 L 172.53614696 194.493119751 A 49.875 49.875 0 0 1 166.410105453 197.098026116 z" fill="#a4ad17" stroke="white" stroke-width="1" />
<path d="M 174.615158179 220.647039174 L 182.820210906 244.196052232 A 99.75 99.75 0 0 0 195.07229392 238.986239502 L 183.80422044 216.739679627 A 74.8125 74.8125 0 0 1 174.615158179 220.647039174 z" fill="#a4ad17" stroke="white" stroke-width="1" />
<path d="M 172.53614696 194.493119751 L 183.80422044 216.739679627 A 74.8125 74.8125 0 0 0 204.251871883 201.513537575 L 186.167914589 184.342358383 A 49.875 49.875 0 0 1 172.53614696 194.493119751 z" fill="#e05d44" stroke="white" stroke-width="1" />
<path d="M 183.80422044 216.739679627 L 195.07229392 238.986239502 A 99.75 99.75 0 0 0 204.9642336 233.240588205 L 191.2231752 212.430441154 A 74.8125 74.8125 0 0 1 183.80422044 216.739679627 z" fill="#f79127" stroke="white" stroke-width="1" />
<path d="M 195.07229392 238.986239502 L 206.340367401 261.232799378 A 124.6875 124.6875 0 0 0 215.787586579 255.919620979 L 202.630069263 234.735696783 A 99.75 99.75 0 0 1 195.07229392 238.986239502 z" fill="#f06c3d" stroke="white" stroke-width="1" />
<path d="M 202.630069263 234.735696783 L 215.787586579 255.919620979 A 124.6875 124.6875 0 0 0 218.705292001 254.050735256 L 204.9642336 233.240588205 A 99.75 99.75 0 0 1 202.630069263 234.735696783 z" fill="#98c802" stroke="white" stroke-width="1" />
<path d="M 191.2231752 212.430441154 L 204.9642336 233.240588205 A 99.75 99.75 0 0 0 222.335829177 218.684716766 L 204.251871883 201.513537575 A 74.8125 74.8125 0 0 1 191.2231752 212.430441154 z" fill="#e05d44" stroke="white" stroke-width="1" />
<path d="M 204.9642336 233.240588205 L 218.705292001 254.050735256 A 124.6875 124.6875 0 0 0 221.569941576 252.101499103 L 207.255953261 231.681199282 A 99.75 99.75 0 0 1 204.9642336 233.240588205 z" fill="#98c802" stroke="white" stroke-width="1" />
<path d="M 207.255953261 231.681199282 L 221.569941576 252.101499103 A 124.6875 124.6875 0 0 0 240.419786472 235.855895958 L 222.335829177 218.684716766 A 99.75 99.75 0 0 1 207.255953261 231.681199282 z" fill="#e05d44" stroke="white" stroke-width="1" />
<path d="M 186.167914589 184.342358383 L 204.251871883 201.513537575 A 74.8125 74.8125 0 0 0 207.97350934 197.286175264 L 188.649006226 181.524116843 A 49.875 49.875 0 0 1 186.167914589 184.342358383 z" fill="#e05d44" stroke="white" stroke-width="1" />
<path d="M 204.251871883 201.513537575 L 222.335829177 218.684716766 A 99.75 99.75 0 0 0 225.691289483 214.96838613 L 206.768467112 198.726289598 A 74.8125 74.8125 0 0 1 204.251871883 201.513537575 z" fill="#e05d44" stroke="white" stroke-width="1" />
<path d="M 206.768467112 198.726289598 L 225.691289483 214.96838613 A 99.75 99.75 0 0 0 227.298012453 213.048233685 L 207.97350934 197.286175264 A 74.8125 74.8125 0 0 1 206.768467112 198.726289598 z" fill="#e05d44" stroke="white" stroke-width="1" />
<path d="M 188.649006226 181.524116843 L 207.97350934 197.286175264 A 74.8125 74.8125 0 0 0 215.830457997 185.542382533 L 193.886971998 173.694921689 A 49.875 49.875 0 0 1 188.649006226 181.524116843 z" fill="#e05d44" stroke="white" stroke-width="1" />
<path d="M 207.97350934 197.286175264 L 227.298012453 213.048233685 A 99.75 99.75 0 0 0 232.980987028 205.355381778 L 212.235740271 191.516536334 A 74.8125 74.8125 0 0 1 207.97350934 197.286175264 z" fill="#e05d44" stroke="white" stroke-width="1" />
<path d="M 212.235740271 191.516536334 L 232.980987028 205.355381778 A 99.75 99.75 0 0 0 237.773943996 197.389843377 L 215.830457997 185.542382533 A 74.8125 74.8125 0 0 1 212.235740271 191.516536334 z" fill="#e05d44" stroke="white" stroke-width="1" />
<path d="M 193.886971998 173.694921689 L 215.830457997 185.542382533 A 74.8125 74.8125 0 0 0 218.774461276 179.444585792 L 195.849640851 169.629723861 A 49.875 49.875 0 0 1 193.886971998 173.694921689 z" fill="#6ccb08" stroke="white" stroke-width="1" />
<path d="M 215.830457997 185.542382533 L 237.773943996 197.389843377 A 99.75 99.75 0 0 0 241.017328134 190.815542129 L 218.262996101 180.611656597 A 74.8125 74.8125 0 0 1 215.830457997 185.542382533 z" fill="#4c1" stroke="white" stroke-width="1" />
<path d="M 218.262996101 180.611656597 L 241.017328134 190.815542129 A 99.75 99.75 0 0 0 241.699281701 189.259447722 L 218.774461276 179.444585792 A 74.8125 74.8125 0 0 1 218.262996101 180.611656597 z" fill="#c9b21a" stroke="white" stroke-width="1" />
<path d="M 195.849640851 169.629723861 L 218.774461276 179.444585792 A 74.8125 74.8125 0 0 0 224.781237696 152.162555169 L 199.854158464 151.441703446 A 49.875 49.875 0 0 1 195.849640851 169.629723861 z" fill="#fa882e" stroke="white" stroke-width="1" />
<path d="M 218.774461276 179.444585792 L 241.699281701 189.259447722 A 99.75 99.75 0 0 0 242.422062615 187.526321988 L 219.316546961 178.144741491 A 74.8125 74.8125 0 0 1 218.774461276 179.444585792 z" fill="#4c1" stroke="white" stroke-width="1" />
<path d="M 219.316546961 178.144741491 L 242.422062615 187.526321988 A 99.75 99.75 0 0 0 242.589335138 187.111689786 L 219.442001353 177.83376734 A 74.8125 74.8125 0 0 1 219.316546961 178.144741491 z" fill="#4c1" stroke="white" stroke-width="1" />
<path d="M 242.422062615 187.526321988 L 265.527578269 196.907902486 A 124.6875 124.6875 0 0 0 265.736668922 196.389612233 L 242.589335138 187.111689786 A 99.75 99.75 0 0 1 242.422062615 187.526321988 z" fill="#4c1" stroke="white" stroke-width="1" />
<path d="M 219.442001353 177.83376734 L 242.589335138 187.111689786 A 99.75 99.75 0 0 0 243.553792132 184.608531863 L 220.165344099 175.956398898 A 74.8125 74.8125 0 0 1 219.442001353 177.83376734 z" fill="#b2ac1c" stroke="white" stroke-width="1" />
<path d="M 220.165344099 175.956398898 L 243.553792132 184.608531863 A 99.75 99.75 0 0 0 247.006150042 173.235088852 L 222.754612532 167.426316639 A 74.8125 74.8125 0 0 1 220.165344099 175.956398898 z" fill="#e05d44" stroke="white" stroke-width="1" />
<path d="M 243.553792132 184.608531863 L 266.942240165 193.260664829 A 124.6875 124.6875 0 0 0 271.046281262 179.912713833 L 246.83702501 173.930171066 A 99.75 99.75 0 0 1 243.553792132 184.608531863 z" fill="#e05d44" stroke="white" stroke-width="1" />
<path d="M 246.83702501 173.930171066 L 271.046281262 179.912713833 A 124.6875 124.6875 0 0 0 271.257687553 179.043861065 L 247.006150042 173.235088852 A 99.75 99.75 0 0 1 246.83702501 173.930171066 z" fill="#4c1" stroke="white" stroke-width="1" />
<path d="M 222.754612532 167.426316639 L 247.006150042 173.235088852 A 99.75 99.75 0 0 0 249.708316928 152.883406892 L 224.781237696 152.162555169 A 74.8125 74.8125 0 0 1 222.754612532 167.426316639 z" fill="#ebad15" stroke="white" stroke-width="1" />
<path d="M 199.854158464 151.441703446 L 224.781237696 152.162555169 A 74.8125 74.8125 0 0 0 224.789352965 148.139129419 L 199.859568643 148.759419613 A 49.875 49.875 0 0 1 199.854158464 151.441703446 z" fill="#efa41b" stroke="white" stroke-width="1" />
<path d="M 224.781237696 152.162555169 L 249.708316928 152.883406892 A 99.75 99.75 0 0 0 249.719137287 147.518839226 L 224.789352965 148.139129419 A 74.8125 74.8125 0 0 1 224.781237696 152.162555169 z" fill="#efa41b" stroke="white" stroke-width="1" />
<path d="M 199.859568643 148.759419613 L 224.789352965 148.139129419 A 74.8125 74.8125 0 0 0 224.575853863 144.054230335 L 199.717235908 146.036153557 A 49.875 49.875 0 0 1 199.859568643 148.759419613 z" fill="#98c802" stroke="white" stroke-width="1" />
<path d="M 224.789352965 148.139129419 L 249.719137287 147.518839226 A 99.75 99.75 0 0 0 249.597210486 144.481108506 L 224.697907865 145.86083138 A 74.8125 74.8125 0 0 1 224.789352965 148.139129419 z" fill="#a4a61d" stroke="white" stroke-width="1" />
<path d="M 224.697907865 145.86083138 L 249.597210486 144.481108506 A 99.75 99.75 0 0 0 249.507810394 143.053189899 L 224.630857796 144.789892425 A 74.8125 74.8125 0 0 1 224.697907865 145.86083138 z" fill="#4c1" stroke="white" stroke-width="1" />
<path d="M 224.630857796 144.789892425 L 249.507810394 143.053189899 A 99.75 99.75 0 0 0 249.434471817 142.072307114 L 224.575853863 144.054230335 A 74.8125 74.8125 0 0 1 224.630857796 144.789892425 z" fill="#4c1" stroke="white" stroke-width="1" />
<path d="M 199.717235908 146.036153557 L 224.575853863 144.054230335 A 74.8125 74.8125 0 0 0 224.183545153 140.319515258 L 199.455696768 143.546343505 A 49.875 49.875 0 0 1 199.717235908 146.036153557 z" fill="#a4ad17" stroke="white" stroke-width="1" />
<path d="M 224.575853863 144.054230335 L 249.434471817 142.072307114 A 99.75 99.75 0 0 0 249.285027367 140.379925116 L 224.463770525 142.784943837 A 74.8125 74.8125 0 0 1 224.575853863 144.054230335 z" fill="#c9b21a" stroke="white" stroke-width="1" />
<path d="M 224.463770525 142.784943837 L 249.285027367 140.379925116 A 99.75 99.75 0 0 0 248.911393537 137.09268701 L 224.183545153 140.319515258 A 74.8125 74.8125 0 0 1 224.463770525 142.784943837 z" fill="#9fbc0b" stroke="white" stroke-width="1" />
<path d="M 199.455696768 143.546343505 L 224.183545153 140.319515258 A 74.8125 74.8125 0 0 0 221.891444545 129.299025206 L 197.927629697 136.199350137 A 49.875 49.875 0 0 1 199.455696768 143.546343505 z" fill="#9bc405" stroke="white" stroke-width="1" />
<path d="M 224.183545153 140.319515258 L 248.911393537 137.09268701 A 99.75 99.75 0 0 0 248.62426282 135.056195827 L 223.968197115 138.79214687 A 74.8125 74.8125 0 0 1 224.183545153 140.319515258 z" fill="#4c1" stroke="white" stroke-width="1" />
<path d="M 223.968197115 138.79214687 L 248.62426282 135.056195827 A 99.75 99.75 0 0 0 248.218139044 132.585647793 L 223.663604283 136.939235845 A 74.8125 74.8125 0 0 1 223.968197115 138.79214687 z" fill="#4c1" stroke="white" stroke-width="1" />
<path d="M 223.663604283 136.939235845 L 248.218139044 132.585647793 A 99.75 99.75 0 0 0 247.838235033 130.56440725 L 223.378676275 135.423305438 A 74.8125 74.8125 0 0 1 223.663604283 136.939235845 z" fill="#afab1c" stroke="white" stroke-width="1" />
<path d="M 223.378676275 135.423305438 L 247.838235033 130.56440725 A 99.75 99.75 0 0 0 247.319624694 128.115001725 L 222.98971852 133.586251294 A 74.8125 74.8125 0 0 1 223.378676275 135.423305438 z" fill="#4c1" stroke="white" stroke-width="1" />
<path d="M 222.98971852 133.586251294 L 247.319624694 128.115001725 A 99.75 99.75 0 0 0 245.855259394 122.398700274 L 221.891444545 129.299025206 A 74.8125 74.8125 0 0 1 222.98971852 133.586251294 z" fill="#b4ad1c" stroke="white" stroke-width="1" />
<path d="M 197.927629697 136.199350137 L 221.891444545 129.299025206 A 74.8125 74.8125 0 0 0 215.973300086 114.72346627 L 193.982200057 126.482310846 A 49.875 49.875 0 0 1 197.927629697 136.199350137 z" fill="#e35f42" stroke="white" stroke-width="1" />
<path d="M 221.891444545 129.299025206 L 245.855259394 122.398700274 A 99.75 99.75 0 0 0 240.327948196 107.680686741 L 217.745961147 118.260515056 A 74.8125 74.8125 0 0 1 221.891444545 129.299025206 z" fill="#e56142" stroke="white" stroke-width="1" />
<path d="M 217.745961147 118.260515056 L 240.327948196 107.680686741 A 99.75 99.75 0 0 0 237.964400115 102.964621693 L 215.973300086 114.72346627 A 74.8125 74.8125 0 0 1 217.745961147 118.260515056 z" fill="#e05d44" stroke="white" stroke-width="1" />
<path d="M 193.982200057 126.482310846 L 215.973300086 114.72346627 A 74.8125 74.8125 0 0 0 208.624928663 103.523899739 L 189.083285775 119.015933159 A 49.875 49.875 0 0 1 193.982200057 126.482310846 z" fill="#e05d44" stroke="white" stroke-width="1" />
<path d="M 215.973300086 114.72346627 L 237.964400115 102.964621693 A 99.75 99.75 0 0 0 236.490168797 100.305803141 L 214.867626598 112.729352356 A 74.8125 74.8125 0 0 1 215.973300086 114.72346627 z" fill="#e05d44" stroke="white" stroke-width="1" />
<path d="M 214.867626598 112.729352356 L 236.490168797 100.305803141 A 99.75 99.75 0 0 0 234.700292649 97.3129719467 L 213.525219487 110.48472896 A 74.8125 74.8125 0 0 1 214.867626598 112.729352356 z" fill="#4c1" stroke="white" stroke-width="1" />
<path d="M 213.525219487 110.48472896 L 234.700292649 97.3129719467 A 99.75 99.75 0 0 0 233.6934912 95.7278890152 L 212.7701184 109.295916761 A 74.8125 74.8125 0 0 1 213.525219487 110.48472896 z" fill="#4c1" stroke="white" stroke-width="1" />
<path d="M 212.7701184 109.295916761 L 233.6934912 95.7278890152 A 99.75 99.75 0 0 0 232.456276484 93.8660087974 L 211.842207363 107.899506598 A 74.8125 74.8125 0 0 1 212.7701184 109.295916761 z" fill="#4c1" stroke="white" stroke-width="1" />
<path d="M 211.842207363 107.899506598 L 232.456276484 93.8660087974 A 99.75 99.75 0 0 0 228.277547947 88.1721099557 L 208.708160961 103.629082467 A 74.8125 74.8125 0 0 1 211.842207363 107.899506598 z" fill="#e05d44" stroke="white" stroke-width="1" />
<path d="M 208.708160961 103.629082467 L 228.277547947 88.1721099557 A 99.75 99.75 0 0 0 228.166571551 88.031866318 L 208.624928663 103.523899739 A 74.8125 74.8125 0 0 1 208.708160961 103.629082467 z" fill="#e05d44" stroke="white" stroke-width="1" />
<path d="M 189.083285775 119.015933159 L 208.624928663 103.523899739 A 74.8125 74.8125 0 0 0 204.367183219 98.608176282 L 186.244788813 115.738784188 A 49.875 49.875 0 0 1 189.083285775 119.015933159 z" fill="#cfb319" stroke="white" stroke-width="1" />
<path d="M 208.624928663 103.523899739 L 228.166571551 88.031866318 A 99.75 99.75 0 0 0 223.646112326 82.7221237013 L 205.234584244 99.5415927759 A 74.8125 74.8125 0 0 1 208.624928663 103.523899739 z" fill="#d3b319" stroke="white" stroke-width="1" />
<path d="M 205.234584244 99.5415927759 L 223.646112326 82.7221237013 A 99.75 99.75 0 0 0 222.61231428 81.607644324 L 204.45923571 98.705733243 A 74.8125 74.8125 0 0 1 205.234584244 99.5415927759 z" fill="#dcb317" stroke="white" stroke-width="1" />
<path d="M 204.45923571 98.705733243 L 222.61231428 81.607644324 A 99.75 99.75 0 0 0 222.489577626 81.477568376 L 204.367183219 98.608176282 A 74.8125 74.8125 0 0 1 204.45923571 98.705733243 z" fill="#4c1" stroke="white" stroke-width="1" />
<path d="M 186.244788813 115.738784188 L 204.367183219 98.608176282 A 74.8125 74.8125 0 0 0 180.198038905 81.5530234227 L 170.132025936 104.368682282 A 49.875 49.875 0 0 1 186.244788813 115.738784188 z" fill="#ed683e" stroke="white" stroke-width="1" />
<path d="M 204.367183219 98.608176282 L 222.489577626 81.477568376 A 99.75 99.75 0 0 0 215.929965723 75.1447923005 L 199.447474292 93.8585942253 A 74.8125 74.8125 0 0 1 204.367183219 98.608176282 z" fill="#e05d44" stroke="white" stroke-width="1" />
<path d="M 199.447474292 93.8585942253 L 215.929965723 75.1447923005 A 99.75 99.75 0 0 0 198.272619541 62.7084385372 L 186.204464656 84.5313289029 A 74.8125 74.8125 0 0 1 199.447474292 93.8585942253 z" fill="#fa882e" stroke="white" stroke-width="1" />
<path d="M 215.929965723 75.1447923005 L 232.412457154 56.4309903756 A 124.6875 124.6875 0 0 0 210.340774427 40.8855481715 L 198.272619541 62.7084385372 A 99.75 99.75 0 0 1 215.929965723 75.1447923005 z" fill="#fa882e" stroke="white" stroke-width="1" />
<path d="M 186.204464656 84.5313289029 L 198.272619541 62.7084385372 A 99.75 99.75 0 0 0 197.488169282 62.2792141038 L 185.616126961 84.2094105778 A 74.8125 74.8125 0 0 1 186.204464656 84.5313289029 z" fill="#e05d44" stroke="white" stroke-width="1" />
<path d="M 185.616126961 84.2094105778 L 197.488169282 62.2792141038 A 99.75 99.75 0 0 0 196.304358318 61.6486055528 L 184.728268738 83.7364541646 A 74.8125 74.8125 0 0 1 185.616126961 84.2094105778 z" fill="#f26d3c" stroke="white" stroke-width="1" />
<path d="M 184.728268738 83.7364541646 L 196.304358318 61.6486055528 A 99.75 99.75 0 0 0 190.264051873 58.7373645636 L 180.198038905 81.5530234227 A 74.8125 74.8125 0 0 1 184.728268738 83.7364541646 z" fill="#e05d44" stroke="white" stroke-width="1" />
<path d="M 170.132025936 104.368682282 L 180.198038905 81.5530234227 A 74.8125 74.8125 0 0 0 176.160711481 79.9105761825 L 167.440474321 103.273717455 A 49.875 49.875 0 0 1 170.132025936 104.368682282 z" fill="#e3b116" stroke="white" stroke-width="1" />
<path d="M 180.198038905 81.5530234227 L 190.264051873 58.7373645636 A 99.75 99.75 0 0 0 188.86862687 58.134378872 L 179.151470153 81.100784154 A 74.8125 74.8125 0 0 1 180.198038905 81.5530234227 z" fill="#dcb317" stroke="white" stroke-width="1" />
<path d="M 179.151470153 81.100784154 L 188.86862687 58.134378872 A 99.75 99.75 0 0 0 188.043551072 57.7896387503 L 178.532663304 80.8422290627 A 74.8125 74.8125 0 0 1 179.151470153 81.100784154 z" fill="#4c1" stroke="white" stroke-width="1" />
<path d="M 178.532663304 80.8422290627 L 188.043551072 57.7896387503 A 99.75 99.75 0 0 0 184.880948641 56.54743491 L 176.160711481 79.9105761825 A 74.8125 74.8125 0 0 1 178.532663304 80.8422290627 z" fill="#fd8035" stroke="white" stroke-width="1" />
<path d="M 167.440474321 103.273717455 L 176.160711481 79.9105761825 A 74.8125 74.8125 0 0 0 171.392805411 78.3113814271 L 164.261870274 102.207587618 A 49.875 49.875 0 0 1 167.440474321 103.273717455 z" fill="#e05d44" stroke="white" stroke-width="1" />
<path d="M 176.160711481 79.9105761825 L 184.880948641 56.54743491 A 99.75 99.75 0 0 0 182.016835143 55.5278624809 L 174.012626357 79.1458968606 A 74.8125 74.8125 0 0 1 176.160711481 79.9105761825 z" fill="#e05d44" stroke="white" stroke-width="1" />
<path d="M 174.012626357 79.1458968606 L 182.016835143 55.5278624809 A 99.75 99.75 0 0 0 178.523740548 54.4151752362 L 171.392805411 78.3113814271 A 74.8125 74.8125 0 0 1 174.012626357 79.1458968606 z" fill="#e05d44" stroke="white" stroke-width="1" />
<path d="M 164.261870274 102.207587618 L 171.392805411 78.3113814271 A 74.8125 74.8125 0 0 0 164.033616103 76.5155269779 L 159.355744068 101.010351319 A 49.875 49.875 0 0 1 164.261870274 102.207587618 z" fill="#e05d44" stroke="white" stroke-width="1" />
<path d="M 171.392805411 78.3113814271 L 178.523740548 54.4151752362 A 99.75 99.75 0 0 0 171.339396862 52.55928653 L 166.004547647 76.9194648975 A 74.8125 74.8125 0 0 1 171.392805411 78.3113814271 z" fill="#e05d44" stroke="white" stroke-width="1" />
<path d="M 166.004547647 76.9194648975 L 171.339396862 52.55928653 A 99.75 99.75 0 0 0 168.711488137 52.0207026372 L 164.033616103 76.5155269779 A 74.8125 74.8125 0 0 1 166.004547647 76.9194648975 z" fill="#e05d44" stroke="white" stroke-width="1" />
<path d="M 159.355744068 101.010351319 L 164.033616103 76.5155269779 A 74.8125 74.8125 0 0 0 139.074038421 75.9896391049 L 142.716025614 100.659759403 A 49.875 49.875 0 0 1 159.355744068 101.010351319 z" fill="#e05d44" stroke="white" stroke-width="1" />
<path d="M 164.033616103 76.5155269779 L 168.711488137 52.0207026372 A 99.75 99.75 0 0 0 150.223550867 50.2502505015 L 150.16766315 75.1876878761 A 74.8125 74.8125 0 0 1 164.033616103 76.5155269779 z" fill="#e05d44" stroke="white" stroke-width="1" />
<path d="M 168.711488137 52.0207026372 L 173.389360171 27.5258782965 A 124.6875 124.6875 0 0 0 172.620365234 27.3815196109 L 168.096292187 51.9052156887 A 99.75 99.75 0 0 1 168.711488137 52.0207026372 z" fill="#baaf1b" stroke="white" stroke-width="1" />
<path d="M 168.096292187 51.9052156887 L 172.620365234 27.3815196109 A 124.6875 124.6875 0 0 0 150.279438583 25.3128131269 L 150.223550867 50.2502505015 A 99.75 99.75 0 0 1 168.096292187 51.9052156887 z" fill="#e05d44" stroke="white" stroke-width="1" />
<path d="M 150.16766315 75.1876878761 L 150.223550867 50.2502505015 A 99.75 99.75 0 0 0 143.521582492 50.4605977183 L 145.141186869 75.3454482888 A 74.8125 74.8125 0 0 1 150.16766315 75.1876878761 z" fill="#8eca02" stroke="white" stroke-width="1" />
<path d="M 150.223550867 50.2502505015 L 150.279438583 25.3128131269 A 124.6875 124.6875 0 0 0 146.032638535 25.3756336054 L 146.826110828 50.3005068843 A 99.75 99.75 0 0 1 150.223550867 50.2502505015 z" fill="#4c1" stroke="white" stroke-width="1" />
<path d="M 146.826110828 50.3005068843 L 146.032638535 25.3756336054 A 124.6875 124.6875 0 0 0 144.803943096 25.4208137412 L 145.843154476 50.336650993 A 99.75 99.75 0 0 1 146.826110828 50.3005068843 z" fill="#4c1" stroke="white" stroke-width="1" />
<path d="M 145.843154476 50.336650993 L 144.803943096 25.4208137412 A 124.6875 124.6875 0 0 0 142.68290921 25.5273811691 L 144.146327368 50.4219049353 A 99.75 99.75 0 0 1 145.843154476 50.336650993 z" fill="#c9b21a" stroke="white" stroke-width="1" />
<path d="M 144.146327368 50.4219049353 L 142.68290921 25.5273811691 A 124.6875 124.6875 0 0 0 141.901978115 25.5757471479 L 143.521582492 50.4605977183 A 99.75 99.75 0 0 1 144.146327368 50.4219049353 z" fill="#baaf1b" stroke="white" stroke-width="1" />
<path d="M 145.141186869 75.3454482888 L 143.521582492 50.4605977183 A 99.75 99.75 0 0 0 135.432051228 51.3195188065 L 139.074038421 75.9896391049 A 74.8125 74.8125 0 0 1 145.141186869 75.3454482888 z" fill="#e05d44" stroke="white" stroke-width="1" />
<path d="M 143.521582492 50.4605977183 L 141.901978115 25.5757471479 A 124.6875 124.6875 0 0 0 136.112819154 26.0882617974 L 138.890255323 50.8706094379 A 99.75 99.75 0 0 1 143.521582492 50.4605977183 z" fill="#e05d44" stroke="white" stroke-width="1" />
<path d="M 138.890255323 50.8706094379 L 136.112819154 26.0882617974 A 124.6875 124.6875 0 0 0 134.004413639 26.342756487 L 137.203530911 51.0742051896 A 99.75 99.75 0 0 1 138.890255323 50.8706094379 z" fill="#e05d44" stroke="white" stroke-width="1" />
<path d="M 137.203530911 51.0742051896 L 134.004413639 26.342756487 A 124.6875 124.6875 0 0 0 133.228769953 26.4455646326 L 136.583015962 51.1564517061 A 99.75 99.75 0 0 1 137.203530911 51.0742051896 z" fill="#baaf1b" stroke="white" stroke-width="1" />
<path d="M 136.583015962 51.1564517061 L 133.228769953 26.4455646326 A 124.6875 124.6875 0 0 0 131.790064035 26.6493985081 L 135.432051228 51.3195188065 A 99.75 99.75 0 0 1 136.583015962 51.1564517061 z" fill="#fb8530" stroke="white" stroke-width="1" />
<path d="M 146.358012807 125.329879702 L 142.716025614 100.659759403 A 49.875 49.875 0 0 0 130.978224464 103.894819375 L 140.489112232 126.947409688 A 24.9375 24.9375 0 0 1 146.358012807 125.329879702 z" fill="#78cb06" stroke="white" stroke-width="1" />
<path d="M 142.716025614 100.659759403 L 139.074038421 75.9896391049 A 74.8125 74.8125 0 0 0 138.212298718 76.121990723 L 142.141532478 100.747993815 A 49.875 49.875 0 0 1 142.716025614 100.659759403 z" fill="#4c1" stroke="white" stroke-width="1" />
<path d="M 142.141532478 100.747993815 L 138.212298718 76.121990723 A 74.8125 74.8125 0 0 0 123.399987115 80.0761165928 L 132.266658076 103.384077729 A 49.875 49.875 0 0 1 142.141532478 100.747993815 z" fill="#81cb04" stroke="white" stroke-width="1" />
<path d="M 132.266658076 103.384077729 L 123.399987115 80.0761165928 A 74.8125 74.8125 0 0 0 121.467336696 80.8422290627 L 130.978224464 103.894819375 A 49.875 49.875 0 0 1 132.266658076 103.384077729 z" fill="#4c1" stroke="white" stroke-width="1" />
<path d="M 140.489112232 126.947409688 L 130.978224464 103.894819375 A 49.875 49.875 0 0 0 130.895593533 103.928997422 L 140.447796766 126.964498711 A 24.9375 24.9375 0 0 1 140.489112232 126.947409688 z" fill="#4c1" stroke="white" stroke-width="1" />
<path d="M 140.447796766 126.964498711 L 130.895593533 103.928997422 A 49.875 49.875 0 0 0 129.582030441 104.495910688 L 139.79101522 127.247955344 A 24.9375 24.9375 0 0 1 140.447796766 126.964498711 z" fill="#4c1" stroke="white" stroke-width="1" />
<path d="M 139.79101522 127.247955344 L 129.582030441 104.495910688 A 49.875 49.875 0 0 0 124.853060516 106.928581872 L 137.426530258 128.464290936 A 24.9375 24.9375 0 0 1 139.79101522 127.247955344 z" fill="#a0bb0c" stroke="white" stroke-width="1" />
<path d="M 137.426530258 128.464290936 L 124.853060516 106.928581872 A 49.875 49.875 0 0 0 135.118124415 197.602997847 L 142.559062207 173.801498924 A 24.9375 24.9375 0 0 1 137.426530258 128.464290936 z" fill="#a3b114" stroke="white" stroke-width="1" />
<path d="M 124.853060516 106.928581872 L 112.279590774 85.3928728076 A 74.8125 74.8125 0 0 0 106.319817588 89.2632580661 L 120.879878392 109.508838711 A 49.875 49.875 0 0 1 124.853060516 106.928581872 z" fill="#9ac603" stroke="white" stroke-width="1" />
<path d="M 112.279590774 85.3928728076 L 99.7061210317 63.8571637435 A 99.75 99.75 0 0 0 98.3992321377 64.6335941016 L 111.299424103 85.9751955762 A 74.8125 74.8125 0 0 1 112.279590774 85.3928728076 z" fill="#a4a61d" stroke="white" stroke-width="1" />
<path d="M 111.299424103 85.9751955762 L 98.3992321377 64.6335941016 A 99.75 99.75 0 0 0 95.1477470118 66.6855784266 L 108.860810259 87.5141838199 A 74.8125 74.8125 0 0 1 111.299424103 85.9751955762 z" fill="#a4a81c" stroke="white" stroke-width="1" />
<path d="M 108.860810259 87.5141838199 L 95.1477470118 66.6855784266 A 99.75 99.75 0 0 0 91.7597567846 69.0176774215 L 106.319817588 89.2632580661 A 74.8125 74.8125 0 0 1 108.860810259 87.5141838199 z" fill="#4c1" stroke="white" stroke-width="1" />
<path d="M 120.879878392 109.508838711 L 106.319817588 89.2632580661 A 74.8125 74.8125 0 0 0 95.7019708519 201.464883046 L 113.801313901 184.30992203 A 49.875 49.875 0 0 1 120.879878392 109.508838711 z" fill="#a4ac19" stroke="white" stroke-width="1" />
<path d="M 106.319817588 89.2632580661 L 91.7597567846 69.0176774215 A 99.75 99.75 0 0 0 88.6821558546 71.3222745032 L 104.011616891 90.9917058774 A 74.8125 74.8125 0 0 1 106.319817588 89.2632580661 z" fill="#a2b511" stroke="white" stroke-width="1" />
<path d="M 104.011616891 90.9917058774 L 88.6821558546 71.3222745032 A 99.75 99.75 0 0 0 81.6239192839 77.3723600418 L 98.7179394629 95.5292700313 A 74.8125 74.8125 0 0 1 104.011616891 90.9917058774 z" fill="#a4a81c" stroke="white" stroke-width="1" />
<path d="M 98.7179394629 95.5292700313 L 81.6239192839 77.3723600418 A 99.75 99.75 0 0 0 77.6949641348 81.2828675764 L 95.7712231011 98.4621506823 A 74.8125 74.8125 0 0 1 98.7179394629 95.5292700313 z" fill="#9ebe09" stroke="white" stroke-width="1" />
<path d="M 95.7712231011 98.4621506823 L 77.6949641348 81.2828675764 A 99.75 99.75 0 0 0 70.6807758975 89.514272859 L 90.5105819231 104.635704644 A 74.8125 74.8125 0 0 1 95.7712231011 98.4621506823 z" fill="#a4a81c" stroke="white" stroke-width="1" />
<path d="M 90.5105819231 104.635704644 L 70.6807758975 89.514272859 A 99.75 99.75 0 0 0 66.0640904273 96.1035661273 L 87.0480678204 109.577674595 A 74.8125 74.8125 0 0 1 90.5105819231 104.635704644 z" fill="#9dc008" stroke="white" stroke-width="1" />
<path d="M 87.0480678204 109.577674595 L 66.0640904273 96.1035661273 A 99.75 99.75 0 0 0 55.3640855292 118.470550397 L 79.0230641469 126.352912798 A 74.8125 74.8125 0 0 1 87.0480678204 109.577674595 z" fill="#f7733a" stroke="white" stroke-width="1" />
<path d="M 79.0230641469 126.352912798 L 55.3640855292 118.470550397 A 99.75 99.75 0 0 0 54.8140370035 120.172245334 L 78.6105277527 127.629184 A 74.8125 74.8125 0 0 1 79.0230641469 126.352912798 z" fill="#4c1" stroke="white" stroke-width="1" />
<path d="M 78.6105277527 127.629184 L 54.8140370035 120.172245334 A 99.75 99.75 0 0 0 53.7352556457 123.862641786 L 77.8014417343 130.39698134 A 74.8125 74.8125 0 0 1 78.6105277527 127.629184 z" fill="#a4a81c" stroke="white" stroke-width="1" />
<path d="M 77.8014417343 130.39698134 L 53.7352556457 123.862641786 A 99.75 99.75 0 0 0 50.987690479 137.891116347 L 75.7407678593 140.91833726 A 74.8125 74.8125 0 0 1 77.8014417343 130.39698134 z" fill="#a1b90e" stroke="white" stroke-width="1" />
<path d="M 75.7407678593 140.91833726 L 50.987690479 137.891116347 A 99.75 99.75 0 0 0 50.4027895136 144.481108506 L 75.3020921352 145.86083138 A 74.8125 74.8125 0 0 1 75.7407678593 140.91833726 z" fill="#a2b511" stroke="white" stroke-width="1" />
<path d="M 75.3020921352 145.86083138 L 50.4027895136 144.481108506 A 99.75 99.75 0 0 0 50.2560144835 151.095378148 L 75.1920108626 150.821533611 A 74.8125 74.8125 0 0 1 75.3020921352 145.86083138 z" fill="#93ca01" stroke="white" stroke-width="1" />
<path d="M 75.1920108626 150.821533611 L 50.2560144835 151.095378148 A 99.75 99.75 0 0 0 50.6936623071 159.397541914 L 75.5202467303 157.048156436 A 74.8125 74.8125 0 0 1 75.1920108626 150.821533611 z" fill="#53cc0d" stroke="white" stroke-width="1" />
<path d="M 75.5202467303 157.048156436 L 50.6936623071 159.397541914 A 99.75 99.75 0 0 0 52.2055679964 169.65481033 L 76.6541759973 164.741107747 A 74.8125 74.8125 0 0 1 75.5202467303 157.048156436 z" fill="#8eca02" stroke="white" stroke-width="1" />
<path d="M 76.6541759973 164.741107747 L 52.2055679964 169.65481033 A 99.75 99.75 0 0 0 52.4226558266 170.70566116 L 76.8169918699 165.52924587 A 74.8125 74.8125 0 0 1 76.6541759973 164.741107747 z" fill="#4c1" stroke="white" stroke-width="1" />
<path d="M 76.8169918699 165.52924587 L 52.4226558266 170.70566116 A 99.75 99.75 0 0 0 57.9869606615 188.518347468 L 80.9902204961 178.888760601 A 74.8125 74.8125 0 0 1 76.8169918699 165.52924587 z" fill="#baaf1b" stroke="white" stroke-width="1" />
<path d="M 80.9902204961 178.888760601 L 57.9869606615 188.518347468 A 99.75 99.75 0 0 0 62.0989263598 197.153618662 L 84.0741947698 185.365213996 A 74.8125 74.8125 0 0 1 80.9902204961 178.888760601 z" fill="#85cb03" stroke="white" stroke-width="1" />
<path d="M 84.0741947698 185.365213996 L 62.0989263598 197.153618662 A 99.75 99.75 0 0 0 65.1348158873 202.421017021 L 86.3511119155 189.315762766 A 74.8125 74.8125 0 0 1 84.0741947698 185.365213996 z" fill="#4c1" stroke="white" stroke-width="1" />
<path d="M 86.3511119155 189.315762766 L 65.1348158873 202.421017021 A 99.75 99.75 0 0 0 66.7224762887 204.908255704 L 87.5418572165 191.181191778 A 74.8125 74.8125 0 0 1 86.3511119155 189.315762766 z" fill="#4c1" stroke="white" stroke-width="1" />
<path d="M 87.5418572165 191.181191778 L 66.7224762887 204.908255704 A 99.75 99.75 0 0 0 71.7501725763 211.862969604 L 91.3126294322 196.397227203 A 74.8125 74.8125 0 0 1 87.5418572165 191.181191778 z" fill="#f39a21" stroke="white" stroke-width="1" />
<path d="M 91.3126294322 196.397227203 L 71.7501725763 211.862969604 A 99.75 99.75 0 0 0 74.1342626281 214.764592124 L 93.1006969711 198.573444093 A 74.8125 74.8125 0 0 1 91.3126294322 196.397227203 z" fill="#4c1" stroke="white" stroke-width="1" />
<path d="M 93.1006969711 198.573444093 L 74.1342626281 214.764592124 A 99.75 99.75 0 0 0 77.6026278026 218.619844061 L 95.7019708519 201.464883046 A 74.8125 74.8125 0 0 1 93.1006969711 198.573444093 z" fill="#a3af16" stroke="white" stroke-width="1" />
<path d="M 113.801313901 184.30992203 L 95.7019708519 201.464883046 A 74.8125 74.8125 0 0 0 127.677186622 221.404496771 L 135.118124415 197.602997847 A 49.875 49.875 0 0 1 113.801313901 184.30992203 z" fill="#9ac603" stroke="white" stroke-width="1" />
<path d="M 95.7019708519 201.464883046 L 77.6026278026 218.619844061 A 99.75 99.75 0 0 0 80.4289031468 221.483739288 L 97.8216773601 203.612804466 A 74.8125 74.8125 0 0 1 95.7019708519 201.464883046 z" fill="#81cb04" stroke="white" stroke-width="1" />
<path d="M 97.8216773601 203.612804466 L 80.4289031468 221.483739288 A 99.75 99.75 0 0 0 85.048578777 225.705847734 L 101.286434083 206.7793858 A 74.8125 74.8125 0 0 1 97.8216773601 203.612804466 z" fill="#acaa1d" stroke="white" stroke-width="1" />
<path d="M 101.286434083 206.7793858 L 85.048578777 225.705847734 A 99.75 99.75 0 0 0 87.944315169 228.097083685 L 103.458236377 208.572812764 A 74.8125 74.8125 0 0 1 101.286434083 206.7793858 z" fill="#a2b511" stroke="white" stroke-width="1" />
<path d="M 103.458236377 208.572812764 L 87.944315169 228.097083685 A 99.75 99.75 0 0 0 91.0722129443 230.48340458 L 105.804159708 210.362553435 A 74.8125 74.8125 0 0 1 103.458236377 208.572812764 z" fill="#4c1" stroke="white" stroke-width="1" />
<path d="M 105.804159708 210.362553435 L 91.0722129443 230.48340458 A 99.75 99.75 0 0 0 95.409420457 233.486113367 L 109.057065343 212.614585025 A 74.8125 74.8125 0 0 1 105.804159708 210.362553435 z" fill="#4c1" stroke="white" stroke-width="1" />
<path d="M 109.057065343 212.614585025 L 95.409420457 233.486113367 A 99.75 99.75 0 0 0 98.2844893491 235.296942842 L 111.213367012 213.972707131 A 74.8125 74.8125 0 0 1 109.057065343 212.614585025 z" fill="#4c1" stroke="white" stroke-width="1" />
<path d="M 111.213367012 213.972707131 L 98.2844893491 235.296942842 A 99.75 99.75 0 0 0 101.688259253 237.269915813 L 113.76619444 215.45243686 A 74.8125 74.8125 0 0 1 111.213367012 213.972707131 z" fill="#85cb03" stroke="white" stroke-width="1" />
<path d="M 113.76619444 215.45243686 L 101.688259253 237.269915813 A 99.75 99.75 0 0 0 111.007879547 241.813272693 L 120.75590966 218.85995452 A 74.8125 74.8125 0 0 1 113.76619444 215.45243686 z" fill="#cfb319" stroke="white" stroke-width="1" />
<path d="M 120.75590966 218.85995452 L 111.007879547 241.813272693 A 99.75 99.75 0 0 0 115.160942419 243.468190134 L 123.870706814 220.1011426 A 74.8125 74.8125 0 0 1 120.75590966 218.85995452 z" fill="#5fcc0b" stroke="white" stroke-width="1" />
<path d="M 123.870706814 220.1011426 L 115.160942419 243.468190134 A 99.75 99.75 0 0 0 116.673616616 244.018161387 L 125.005212462 220.51362104 A 74.8125 74.8125 0 0 1 123.870706814 220.1011426 z" fill="#4c1" stroke="white" stroke-width="1" />
<path d="M 125.005212462 220.51362104 L 116.673616616 244.018161387 A 99.75 99.75 0 0 0 120.236248829 245.205995695 L 127.677186622 221.404496771 A 74.8125 74.8125 0 0 1 125.005212462 220.51362104 z" fill="#85cb03" stroke="white" stroke-width="1" />
<path d="M 142.559062207 173.801498924 L 135.118124415 197.602997847 A 49.875 49.875 0 0 0 146.203308579 199.730280104 L 148.101654289 174.865140052 A 24.9375 24.9375 0 0 1 142.559062207 173.801498924 z" fill="#9ebe09" stroke="white" stroke-width="1" />
<path d="M 135.118124415 197.602997847 L 127.677186622 221.404496771 A 74.8125 74.8125 0 0 0 131.74327793 222.550687492 L 137.828851953 198.367124994 A 49.875 49.875 0 0 1 135.118124415 197.602997847 z" fill="#98c802" stroke="white" stroke-width="1" />
<path d="M 137.828851953 198.367124994 L 131.74327793 222.550687492 A 74.8125 74.8125 0 0 0 136.592695951 223.601320331 L 141.061797301 199.067546887 A 49.875 49.875 0 0 1 137.828851953 198.367124994 z" fill="#b4ad1c" stroke="white" stroke-width="1" />
<path d="M 141.061797301 199.067546887 L 136.592695951 223.601320331 A 74.8125 74.8125 0 0 0 137.253021424 223.718550538 L 141.502014282 199.145700359 A 49.875 49.875 0 0 1 141.061797301 199.067546887 z" fill="#4c1" stroke="white" stroke-width="1" />
<path d="M 141.502014282 199.145700359 L 137.253021424 223.718550538 A 74.8125 74.8125 0 0 0 137.980560532 223.840661096 L 141.987040354 199.227107397 A 49.875 49.875 0 0 1 141.502014282 199.145700359 z" fill="#dfb317" stroke="white" stroke-width="1" />
<path d="M 141.987040354 199.227107397 L 137.980560532 223.840661096 A 74.8125 74.8125 0 0 0 144.304962868 224.595420156 L 146.203308579 199.730280104 A 49.875 49.875 0 0 1 141.987040354 199.227107397 z" fill="#81cb04" stroke="white" stroke-width="1" />
<path d="M 148.101654289 174.865140052 L 146.203308579 199.730280104 A 49.875 49.875 0 0 0 147.095480557 199.790354405 L 148.547740278 174.895177203 A 24.9375 24.9375 0 0 1 148.101654289 174.865140052 z" fill="#a3b114" stroke="white" stroke-width="1" />
<path d="M 146.203308579 199.730280104 L 144.304962868 224.595420156 A 74.8125 74.8125 0 0 0 145.643220835 224.685531608 L 147.095480557 199.790354405 A 49.875 49.875 0 0 1 146.203308579 199.730280104 z" fill="#a3b114" stroke="white" stroke-width="1" />
<path d="M 148.547740278 174.895177203 L 147.095480557 199.790354405 A 49.875 49.875 0 0 0 148.882338296 199.862475443 L 149.441169148 174.931237722 A 24.9375 24.9375 0 0 1 148.547740278 174.895177203 z" fill="#9cc206" stroke="white" stroke-width="1" />
<path d="M 149.441169148 174.931237722 L 148.882338296 199.862475443 A 49.875 49.875 0 0 0 150.0 199.875 L 150.0 174.9375 A 24.9375 24.9375 0 0 1 149.441169148 174.931237722 z" fill="#9ebe09" stroke="white" stroke-width="1" />
</svg>